<svg width="600" height="300" viewBox="0 0 600 300" fill="none" xmlns="http://www.w3.org/2000/svg">
<g clip-path="url(#clip0_1_41)">
<path d="M637.05 5.2199C634.62 5.2199 623.83 4.4399 620.98 -9.1101H619.89C611.11 -9.1101 605.57 -12.6201 602.47 -15.5701C600.192 -17.7516 598.393 -20.3835 597.188 -23.2983C595.983 -26.2131 595.398 -29.3468 595.47 -32.5001C595.478 -35.0296 595.797 -37.5484 596.42 -40.0001L596.49 -40.2601C597.593 -44.2838 599.652 -47.9818 602.49 -51.0401C600.668 -52.3097 599.191 -54.0131 598.193 -55.9964C597.194 -57.9797 596.705 -60.1805 596.77 -62.4001C596.819 -66.3158 598.381 -70.0606 601.13 -72.8501C602.504 -74.4153 604.196 -75.6706 606.092 -76.5326C607.989 -77.3946 610.047 -77.8437 612.13 -77.8501H684.93C692.98 -77.8501 698.83 -72.1201 698.83 -64.2101C698.85 -60.1862 697.284 -56.3165 694.47 -53.4401C693.052 -51.9515 691.345 -50.7678 689.453 -49.9614C687.562 -49.155 685.526 -48.7429 683.47 -48.7501H669.37C674.14 -44.5401 676.81 -38.4501 676.94 -31.0601C677.061 -28.505 676.761 -25.9473 676.05 -23.4901C674.2 -16.6901 668.88 -7.9001 654.1 -4.3001L653.75 -4.2101L653.4 -4.1501C652.55 -4.0056 651.691 -3.91873 650.83 -3.8901C648.62 1.7699 643.48 5.2199 637.05 5.2199Z" fill="#EEEDEE"/>
<path d="M636.05 4.2199C633.62 4.2199 622.83 3.4399 619.98 -10.1101H618.89C610.11 -10.1101 604.57 -13.6201 601.47 -16.5701C599.192 -18.7516 597.393 -21.3835 596.188 -24.2983C594.983 -27.2131 594.398 -30.3468 594.47 -33.5001C594.478 -36.0296 594.797 -38.5484 595.42 -41.0001L595.49 -41.2601C596.593 -45.2838 598.652 -48.9818 601.49 -52.0401C599.668 -53.3097 598.191 -55.0131 597.193 -56.9964C596.194 -58.9797 595.705 -61.1805 595.77 -63.4001C595.819 -67.3158 597.381 -71.0606 600.13 -73.8501C601.504 -75.4153 603.196 -76.6706 605.092 -77.5326C606.989 -78.3946 609.047 -78.8437 611.13 -78.8501H683.93C691.98 -78.8501 697.83 -73.1201 697.83 -65.2101C697.85 -61.1862 696.284 -57.3165 693.47 -54.4401C692.052 -52.9515 690.345 -51.7678 688.453 -50.9614C686.562 -50.155 684.526 -49.7429 682.47 -49.7501H668.37C673.14 -45.5401 675.81 -39.4501 675.94 -32.0601C676.061 -29.505 675.761 -26.9473 675.05 -24.4901C673.2 -17.6901 667.88 -8.9001 653.1 -5.3001L652.75 -5.2101L652.4 -5.1501C651.55 -5.0056 650.691 -4.91873 649.83 -4.8901C647.62 0.769901 642.48 4.2199 636.05 4.2199Z" fill="#EEEDEE"/>
<path d="M635.05 3.2199C632.62 3.2199 621.83 2.4399 618.98 -11.1101H617.89C609.11 -11.1101 603.57 -14.6201 600.47 -17.5701C598.192 -19.7516 596.393 -22.3835 595.188 -25.2983C593.983 -28.2131 593.398 -31.3468 593.47 -34.5001C593.478 -37.0296 593.797 -39.5484 594.42 -42.0001L594.49 -42.2601C595.593 -46.2838 597.652 -49.9818 600.49 -53.0401C598.668 -54.3097 597.191 -56.0131 596.193 -57.9964C595.194 -59.9797 594.705 -62.1805 594.77 -64.4001C594.819 -68.3158 596.381 -72.0606 599.13 -74.8501C600.504 -76.4153 602.196 -77.6706 604.092 -78.5326C605.989 -79.3946 608.047 -79.8437 610.13 -79.8501H682.93C690.98 -79.8501 696.83 -74.1201 696.83 -66.2101C696.85 -62.1862 695.284 -58.3165 692.47 -55.4401C691.052 -53.9515 689.345 -52.7678 687.453 -51.9614C685.562 -51.155 683.526 -50.7429 681.47 -50.7501H667.37C672.14 -46.5401 674.81 -40.4501 674.94 -33.0601C675.061 -30.505 674.761 -27.9473 674.05 -25.4901C672.2 -18.6901 666.88 -9.9001 652.1 -6.3001L651.75 -6.2101L651.4 -6.1501C650.55 -6.0056 649.691 -5.91873 648.83 -5.8901C646.62 -0.230099 641.48 3.2199 635.05 3.2199Z" fill="#EEEDEE"/>
<path d="M634.05 2.2199C631.62 2.2199 620.83 1.4399 617.98 -12.1101H616.89C608.11 -12.1101 602.57 -15.6201 599.47 -18.5701C597.192 -20.7516 595.393 -23.3835 594.188 -26.2983C592.983 -29.2131 592.398 -32.3468 592.47 -35.5001C592.478 -38.0296 592.797 -40.5484 593.42 -43.0001L593.49 -43.2601C594.593 -47.2838 596.652 -50.9818 599.49 -54.0401C597.668 -55.3097 596.191 -57.0131 595.193 -58.9964C594.194 -60.9797 593.705 -63.1805 593.77 -65.4001C593.819 -69.3158 595.381 -73.0606 598.13 -75.8501C599.504 -77.4153 601.196 -78.6706 603.092 -79.5326C604.989 -80.3946 607.047 -80.8437 609.13 -80.8501H681.93C689.98 -80.8501 695.83 -75.1201 695.83 -67.2101C695.85 -63.1862 694.284 -59.3165 691.47 -56.4401C690.052 -54.9515 688.345 -53.7678 686.453 -52.9614C684.562 -52.155 682.526 -51.7429 680.47 -51.7501H666.37C671.14 -47.5401 673.81 -41.4501 673.94 -34.0601C674.061 -31.505 673.761 -28.9473 673.05 -26.4901C671.2 -19.6901 665.88 -10.9001 651.1 -7.3001L650.75 -7.2101L650.4 -7.1501C649.55 -7.0056 648.691 -6.91873 647.83 -6.8901C645.62 -1.2301 640.48 2.2199 634.05 2.2199Z" fill="#EEEDEE"/>
<path d="M633.05 1.2199C630.62 1.2199 619.83 0.4399 616.98 -13.1101H615.89C607.11 -13.1101 601.57 -16.6201 598.47 -19.5701C596.192 -21.7516 594.393 -24.3835 593.188 -27.2983C591.983 -30.2131 591.398 -33.3468 591.47 -36.5001C591.478 -39.0296 591.797 -41.5484 592.42 -44.0001L592.49 -44.2601C593.593 -48.2838 595.652 -51.9818 598.49 -55.0401C596.668 -56.3097 595.191 -58.0131 594.193 -59.9964C593.194 -61.9797 592.705 -64.1805 592.77 -66.4001C592.819 -70.3158 594.381 -74.0606 597.13 -76.8501C598.504 -78.4153 600.196 -79.6706 602.092 -80.5326C603.989 -81.3946 606.047 -81.8437 608.13 -81.8501H680.93C688.98 -81.8501 694.83 -76.1201 694.83 -68.2101C694.85 -64.1862 693.284 -60.3165 690.47 -57.4401C689.052 -55.9515 687.345 -54.7678 685.453 -53.9614C683.562 -53.155 681.526 -52.7429 679.47 -52.7501H665.37C670.14 -48.5401 672.81 -42.4501 672.94 -35.0601C673.061 -32.505 672.761 -29.9473 672.05 -27.4901C670.2 -20.6901 664.88 -11.9001 650.1 -8.3001L649.75 -8.2101L649.4 -8.1501C648.55 -8.0056 647.691 -7.91873 646.83 -7.8901C644.62 -2.2301 639.48 1.2199 633.05 1.2199Z" fill="#EEEDEE"/>
<path d="M632.05 0.219902C629.62 0.219902 618.83 -0.5601 615.98 -14.1101H614.89C606.11 -14.1101 600.57 -17.6201 597.47 -20.5701C595.192 -22.7516 593.393 -25.3835 592.188 -28.2983C590.983 -31.2131 590.398 -34.3468 590.47 -37.5001C590.478 -40.0296 590.797 -42.5484 591.42 -45.0001L591.49 -45.2601C592.593 -49.2838 594.652 -52.9818 597.49 -56.0401C595.668 -57.3097 594.191 -59.0131 593.193 -60.9964C592.194 -62.9797 591.705 -65.1805 591.77 -67.4001C591.819 -71.3158 593.381 -75.0606 596.13 -77.8501C597.504 -79.4153 599.196 -80.6706 601.092 -81.5326C602.989 -82.3946 605.047 -82.8437 607.13 -82.8501H679.93C687.98 -82.8501 693.83 -77.1201 693.83 -69.2101C693.85 -65.1862 692.284 -61.3165 689.47 -58.4401C688.052 -56.9515 686.345 -55.7678 684.453 -54.9614C682.562 -54.155 680.526 -53.7429 678.47 -53.7501H664.37C669.14 -49.5401 671.81 -43.4501 671.94 -36.0601C672.061 -33.505 671.761 -30.9473 671.05 -28.4901C669.2 -21.6901 663.88 -12.9001 649.1 -9.3001L648.75 -9.2101L648.4 -9.1501C647.55 -9.0056 646.691 -8.91873 645.83 -8.8901C643.62 -3.2301 638.48 0.219902 632.05 0.219902Z" fill="#EEEDEE"/>
<path d="M373.46 275.26H365.46C365.46 275.26 358.31 244.11 347.38 244.11H318.38L327.82 190.34C327.82 190.34 352.82 195.89 366.31 222.77C379.8 249.65 373.46 275.26 373.46 275.26Z" fill="#F15A29"/>
<path d="M333.1 202.05C338.46 204.94 344.48 207.19 349.37 210.86C359.52 218.48 365.17 229.12 370.27 240.5C371.69 243.68 373.06 246.903 374.38 250.17C373.317 240.635 370.589 231.361 366.32 222.77C352.86 195.89 327.83 190.34 327.83 190.34L326.33 198.9C328.68 199.08 330.48 200.64 333.1 202.05Z" fill="#F7941D"/>
<path d="M361.72 249.94C355.99 233.83 342.62 212.94 324.82 207.47L318.39 244.11H347.39C358.32 244.11 365.47 275.26 365.47 275.26H367.66C366.463 266.655 364.475 258.179 361.72 249.94Z" fill="#F26522"/>
<path d="M226.54 275.26H234.54C234.54 275.26 241.69 244.11 252.62 244.11H281.62L272.18 190.34C272.18 190.34 247.18 195.89 233.69 222.77C220.2 249.65 226.54 275.26 226.54 275.26Z" fill="#F15A29"/>
<path d="M266.9 202.05C261.54 204.94 255.52 207.19 250.63 210.86C240.48 218.48 234.83 229.12 229.73 240.5C228.31 243.68 226.94 246.903 225.62 250.17C226.683 240.635 229.411 231.361 233.68 222.77C247.14 195.89 272.17 190.34 272.17 190.34L273.67 198.9C271.32 199.08 269.52 200.64 266.9 202.05Z" fill="#F7941D"/>
<path d="M238.28 249.94C244.01 233.83 257.38 212.94 275.18 207.47L281.61 244.11H252.61C241.68 244.11 234.53 275.26 234.53 275.26H232.34C233.537 266.655 235.525 258.179 238.28 249.94Z" fill="#F26522"/>
<path d="M318.65 227.75H280.54C275.393 227.75 271.22 231.923 271.22 237.07V247.86C271.22 253.007 275.393 257.18 280.54 257.18H318.65C323.798 257.18 327.97 253.007 327.97 247.86V237.07C327.97 231.923 323.798 227.75 318.65 227.75Z" fill="#7B3293"/>
<path d="M327.7 250C327.877 249.29 327.967 248.561 327.97 247.83V237.03C327.97 234.558 326.988 232.188 325.24 230.44C323.493 228.692 321.122 227.71 318.65 227.71H280.53C279.307 227.71 278.095 227.951 276.965 228.42C275.835 228.888 274.808 229.575 273.944 230.44C273.079 231.306 272.393 232.333 271.926 233.464C271.459 234.595 271.219 235.807 271.22 237.03V247.83C271.22 248.561 271.307 249.29 271.48 250H327.7Z" fill="#9A59A4"/>
<path d="M352.23 99.5402C348.59 48.4602 306.41 24.7402 299.58 24.7402C292.75 24.7402 250.58 48.4602 246.93 99.5402C243.15 152.54 269.21 244.15 269.21 244.15H331.43C331.43 244.15 356 152.51 352.23 99.5402Z" fill="#7B3293"/>
<path d="M289.9 195.26C282.345 172.216 278.817 148.042 279.47 123.8C279.97 99.42 281.56 73.91 288.97 50.52C291.799 41.6642 295.327 33.0471 299.52 24.75C292.52 24.87 250.57 48.59 246.93 99.54C243.15 152.54 269.21 244.15 269.21 244.15H311.12C303.26 228.19 295.52 212.13 289.9 195.26Z" fill="#7B3293"/>
<path d="M350.87 89C342.72 45.18 305.93 24.71 299.58 24.71C293.23 24.71 256.44 45.21 248.29 89C248.29 89 267.29 99.09 297.12 99.09C315.497 98.9772 333.703 95.5595 350.87 89Z" fill="#F15A29"/>
<path d="M301.86 25.2102C301.127 24.9432 300.359 24.7849 299.58 24.7402C293.24 24.7402 256.44 45.2102 248.29 89.0302C258.583 93.5246 269.456 96.5541 280.59 98.0302C281.14 69.6902 297.24 32.1502 301.86 25.2102Z" fill="#F26522"/>
<path d="M341 67.1701C336.6 58.5216 331.05 50.5088 324.5 43.3501C321.171 39.8815 317.587 36.666 313.78 33.7301C311.51 31.9201 308.67 27.7301 305.23 29.5301C302.59 31.0001 316.45 48.6701 325 81.0001C326.14 85.2801 329.35 89.2901 333.29 89.4101C338.43 89.5601 347.12 87.0101 346.46 82.2701C345.68 76.5601 342.35 69.7401 341 67.1701Z" fill="#F7941D"/>
<path d="M345.85 102.75C343.06 98.0101 332.57 96.2401 328.15 99.1101C322.44 102.82 332.06 113.52 332.66 118.86C333.61 127.25 332.21 136.01 331.18 144.33C328.74 164 325 183.31 321 202.7C318.89 212.83 315.56 224.25 318.49 234.61C320.49 241.7 326.49 237.45 329.22 233.55C332.58 228.77 333.65 222.09 334.82 216.55C336.35 209.32 337.82 202.04 338.94 194.74C341.81 176.74 344.29 158.58 346.34 140.49C347.26 132.34 347.59 124.15 347.92 115.96C348.05 111.85 348 106.42 345.85 102.75Z" fill="#D9B8D8"/>
<path d="M338.45 144.27C338.462 151.854 336.224 159.27 332.019 165.581C327.815 171.893 321.833 176.815 314.83 179.725C307.827 182.635 300.118 183.403 292.679 181.931C285.24 180.459 278.404 176.813 273.038 171.455C267.671 166.096 264.015 159.267 262.531 151.83C261.047 144.393 261.803 136.683 264.702 129.676C267.601 122.668 272.514 116.678 278.819 112.464C285.123 108.25 292.536 106 300.12 106C310.276 105.997 320.018 110.027 327.205 117.202C334.392 124.378 338.437 134.114 338.45 144.27Z" fill="#EEEDEE"/>
<path d="M308.05 170.11C298.24 169.51 290.45 168.86 282.8 161.9C275.47 155.23 274.31 146.22 275.18 136.9C275.18 136.49 274.64 136.49 274.51 136.81C266.59 155.81 288.79 178.62 308.16 170.95C308.257 170.92 308.339 170.856 308.394 170.771C308.448 170.686 308.471 170.584 308.458 170.484C308.445 170.383 308.397 170.291 308.322 170.222C308.248 170.154 308.151 170.114 308.05 170.11Z" fill="#7B3293"/>
<path d="M329.66 124.63C324.91 116.63 316.31 110.39 306.79 110.68C306.745 110.673 306.699 110.685 306.663 110.712C306.626 110.739 306.602 110.78 306.595 110.825C306.588 110.87 306.6 110.916 306.627 110.953C306.654 110.989 306.695 111.013 306.74 111.02C315.83 114.62 322.68 119.62 327.48 128.31C331.75 136.05 330.6 143.73 332.19 151.93C332.257 152.13 332.378 152.307 332.54 152.441C332.703 152.575 332.9 152.66 333.109 152.688C333.317 152.715 333.53 152.682 333.721 152.594C333.912 152.506 334.075 152.366 334.19 152.19C338.41 143.8 334.08 132.11 329.66 124.63Z" fill="#F8EDE8"/>
<path d="M303.77 275.26C308.31 261.13 311.59 224.01 311.59 218.26C311.59 211.18 309.01 195.77 300.32 195.77C291.63 195.77 289.06 211.18 289.06 218.26C289.06 223.97 292.34 261.09 296.88 275.26H303.77Z" fill="#F15A29"/>
<path d="M297.23 252.82C296.5 242.35 295.58 231.82 295.93 221.32C296.106 212.799 297.134 204.316 299 196C291.37 197.47 289 211.64 289 218.35C289 224.06 292.28 261.18 296.82 275.35H300.46C298.43 268.2 297.73 260 297.23 252.82Z" fill="#F26522"/>
<path d="M308.36 204.65C307.96 213.19 307.11 221.65 306.87 230.22C306.464 239.886 306.585 249.567 307.23 259.22C309.88 242.84 311.59 222.42 311.59 218.31C311.565 212.872 310.478 207.491 308.39 202.47C308.397 203.197 308.387 203.924 308.36 204.65Z" fill="#F7941D"/>
</g>
<defs>
<clipPath id="clip0_1_41">
<rect width="600" height="300" fill="white"/>
</clipPath>
</defs>
</svg>
