<svg width="1440" height="185" viewBox="0 0 1440 185" fill="none" xmlns="http://www.w3.org/2000/svg">
<path d="M43.507 59.5C1.50703 64.7 -3.99297 85.6667 -1.49297 95.5V188H1444.01V84.5C1439.01 64.5 1415.01 28 1359.01 42C1289.01 59.5 1250.01 131.5 1199.01 95.5C1148.01 59.5 1053.5 16.4266 981.507 27C952 31.3336 893.307 62.2 836.507 77C765.507 95.5 743.507 13.5 746.007 1H692.507C715.707 70.2 624.007 77 571.507 86.5C438.507 86.5 418.507 12.3 340.507 59.5C262.507 106.7 200.007 103.167 178.507 95.5C151.007 81.3333 85.507 54.3 43.507 59.5Z" fill="#D9B8D7" stroke="black"/>
</svg>
