<svg width="1446" height="187" viewBox="0 0 1446 187" fill="none" xmlns="http://www.w3.org/2000/svg">
<path d="M45.5068 44.651C3.50702 48.62 -1.99296 64.6231 0.507027 72.1286L0.507027 187H694.504H1446V63.7327C1441 48.4674 1417 20.6082 1361 31.2939C1291 44.651 1252 99.6061 1201 72.1286C1150 44.651 1055.49 11.7746 983.502 19.8449C953.995 23.1526 895.303 46.7118 838.503 58.0082C767.503 72.1286 745.503 9.54082 748.003 0H694.504C717.703 52.818 626.004 58.0082 573.504 65.2592C440.505 65.2592 420.505 8.6249 342.505 44.651C264.506 80.6772 202.006 77.9803 180.506 72.1286C153.006 61.3157 87.5066 40.682 45.5068 44.651Z" fill="#EEEDEE"/>
</svg>
